<svg xmlns="http://www.w3.org/2000/svg" xmlns:xlink="http://www.w3.org/1999/xlink" width="2400" zoomAndPan="magnify" viewBox="0 0 1800 599.999999" height="800" preserveAspectRatio="xMidYMid meet" version="1.0"><defs><g/></defs><g fill="#ffffff" fill-opacity="1"><g transform="translate(59.976562, 513.853516)"><g><path d="M 256.210938 -274.269531 L 256.210938 -332.230469 C 256.210938 -333.910156 254.527344 -336.011719 251.589844 -336.011719 L 196.988281 -336.011719 C 113.402344 -336.011719 0 -311.652344 0 -168.007812 C 0 -18.902344 114.664062 0 196.988281 0 L 251.589844 0 C 254.527344 0 256.210938 -2.101562 256.210938 -3.78125 L 256.210938 -209.585938 L 127.265625 -209.585938 L 127.265625 -145.324219 L 191.945312 -145.324219 L 191.945312 -61.320312 C 118.863281 -57.542969 64.683594 -88.203125 64.683594 -168.007812 C 64.683594 -271.75 151.207031 -275.949219 191.945312 -274.269531 Z M 256.210938 -274.269531 "/></g></g></g><g fill="#ffffff" fill-opacity="1"><g transform="translate(329.205678, 513.853516)"><g><path d="M 159.605469 -62.582031 L 64.261719 -62.582031 L 64.261719 -138.183594 L 196.148438 -138.183594 C 198.667969 -138.183594 200.765625 -140.285156 200.765625 -141.964844 L 200.765625 -195.308594 C 200.765625 -197.40625 198.667969 -199.085938 196.148438 -199.085938 L 64.261719 -199.085938 L 64.261719 -275.109375 L 159.605469 -275.109375 L 159.605469 -336.011719 L 4.621094 -336.011719 C 2.101562 -336.011719 0 -333.910156 0 -332.230469 L 0 -3.78125 C 0 -2.101562 2.101562 0 4.621094 0 L 159.605469 0 Z M 159.605469 -62.582031 "/></g></g></g><g fill="#ffffff" fill-opacity="1"><g transform="translate(540.052854, 513.853516)"><g><path d="M 136.925781 -57.542969 L 103.324219 -57.542969 L 103.324219 -336.011719 L 39.0625 -336.011719 L 39.0625 -57.542969 L 4.621094 -57.542969 C 2.101562 -57.542969 0 -55.863281 0 -53.761719 L 0 -3.78125 C 0 -2.101562 2.101562 0 4.621094 0 L 136.925781 0 C 139.863281 0 141.546875 -2.101562 141.546875 -3.78125 L 141.546875 -53.761719 C 141.546875 -55.863281 139.863281 -57.542969 136.925781 -57.542969 Z M 136.925781 -57.542969 "/></g></g></g><g fill="#ffffff" fill-opacity="1"><g transform="translate(688.737925, 513.853516)"><g><path d="M 181.445312 -62.582031 L 0 -62.582031 L 0 -3.78125 C 0 -2.101562 2.101562 0 4.621094 0 L 181.445312 0 C 184.386719 0 186.066406 -2.101562 186.066406 -3.78125 L 186.066406 -58.382812 C 186.066406 -60.480469 184.386719 -62.582031 181.445312 -62.582031 Z M 64.261719 -126.84375 L 64.261719 -332.230469 C 64.261719 -333.910156 62.582031 -336.011719 60.0625 -336.011719 L 4.621094 -336.011719 C 2.101562 -336.011719 0 -333.910156 0 -332.230469 L 0 -126.84375 Z M 64.261719 -126.84375 "/></g></g></g><g fill="#ffffff" fill-opacity="1"><g transform="translate(884.464569, 513.853516)"><g><path d="M 154.144531 -186.488281 C 130.203125 -197.828125 106.683594 -197.828125 104.582031 -197.828125 C 83.164062 -197.828125 62.582031 -210.425781 62.582031 -234.789062 C 62.582031 -261.667969 81.484375 -275.53125 104.582031 -275.53125 C 126.425781 -275.53125 144.90625 -264.1875 145.746094 -240.25 C 145.746094 -238.988281 147.84375 -236.886719 150.367188 -236.886719 L 202.867188 -236.886719 C 205.808594 -236.886719 207.90625 -238.988281 207.488281 -240.25 C 206.648438 -297.371094 162.125 -336.011719 104.582031 -336.011719 C 50.820312 -336.011719 0 -297.789062 0 -234.789062 C 0 -195.726562 19.742188 -165.90625 54.601562 -149.945312 C 78.960938 -138.605469 101.644531 -138.605469 104.582031 -138.605469 C 123.484375 -137.765625 146.585938 -122.644531 146.585938 -97.863281 C 146.585938 -75.601562 126.84375 -60.480469 104.582031 -60.480469 C 104.582031 -60.480469 104.582031 -60.480469 104.164062 -60.480469 L 104.164062 0 C 104.582031 0 104.582031 0 104.582031 0 C 158.34375 0 208.746094 -34.859375 208.746094 -97.863281 C 208.746094 -137.34375 189.425781 -170.105469 154.144531 -186.488281 Z M 154.144531 -186.488281 "/></g></g></g><g fill="#2806a7" fill-opacity="1"><g transform="translate(1103.706986, 513.853516)"><g><path d="M 193.207031 -167.164062 C 193.207031 -184.804688 179.347656 -199.085938 161.707031 -199.085938 C 144.066406 -199.085938 130.203125 -184.804688 130.203125 -167.164062 C 130.203125 -149.945312 144.066406 -135.664062 161.707031 -135.664062 C 179.347656 -135.664062 193.207031 -149.945312 193.207031 -167.164062 Z M 323.410156 -168.425781 C 323.410156 -252.007812 269.230469 -336.011719 162.125 -336.011719 C 53.34375 -336.011719 0 -252.007812 0 -168.425781 C 0 -84.421875 53.34375 0 162.125 0 C 269.230469 0 323.410156 -84.421875 323.410156 -168.425781 Z M 260.410156 -167.164062 C 260.410156 -112.984375 227.226562 -58.800781 162.125 -58.800781 C 96.183594 -58.800781 63.421875 -112.984375 63.421875 -167.164062 C 63.421875 -222.1875 96.183594 -276.789062 162.125 -276.789062 C 227.226562 -276.789062 260.410156 -222.1875 260.410156 -167.164062 Z M 260.410156 -167.164062 "/></g></g></g><g fill="#ffffff" fill-opacity="1"><g transform="translate(1443.070234, 513.853516)"><g><path d="M 278.050781 -336.011719 L 223.867188 -336.011719 C 220.929688 -336.011719 218.828125 -333.910156 218.828125 -332.230469 L 218.828125 -113.402344 L 63.84375 -334.753906 C 63.421875 -335.59375 60.902344 -336.011719 60.0625 -336.011719 L 4.199219 -336.011719 C 2.101562 -336.011719 0 -333.910156 0 -332.230469 L 0 -80.644531 L 64.261719 -80.644531 L 64.261719 -222.609375 L 218.828125 -1.261719 C 219.246094 -0.421875 221.769531 0 222.609375 0 L 278.050781 0 C 280.988281 0 282.671875 -2.101562 282.671875 -3.78125 L 282.671875 -332.230469 C 282.671875 -333.910156 280.988281 -336.011719 278.050781 -336.011719 Z M 278.050781 -336.011719 "/></g></g></g></svg>