<svg xmlns="http://www.w3.org/2000/svg" xmlns:xlink="http://www.w3.org/1999/xlink" width="2400" zoomAndPan="magnify" viewBox="0 0 1800 653.999997" height="872" preserveAspectRatio="xMidYMid meet" version="1.0"><defs><g/></defs><path stroke-linecap="butt" transform="matrix(0.75, 0, 0, 0.75, -12.35, 200.594936)" fill="none" stroke-linejoin="miter" d="M 216.42501 573.982819 C 162.680216 573.982819 122.617714 555.081777 96.242713 517.279692 C 70.003129 479.331773 56.888545 421.920312 56.888545 345.045309 L 56.888545 24.493211 C 56.888545 -44.345334 72.190629 -96.324503 102.800005 -131.449505 C 133.409381 -166.715131 179.0448 -184.34534 239.695845 -184.34534 C 288.784388 -184.34534 326.872932 -174.543257 353.956266 -154.933881 C 381.180226 -135.329713 400.008352 -106.694295 410.451061 -69.032835 C 420.888561 -31.506792 426.107311 16.732794 426.107311 75.696338 L 280.534388 75.696338 L 280.534388 8.831752 C 280.534388 -9.079707 278.065638 -22.902625 273.128138 -32.637 C 268.190638 -42.512001 259.378137 -47.449501 246.68022 -47.449501 C 218.326052 -47.449501 204.154176 -28.970333 204.154176 7.988002 L 204.154176 368.529685 C 204.154176 391.102602 207.044801 408.170312 212.826052 419.73802 C 218.61251 431.300521 228.768761 437.08698 243.294803 437.08698 C 257.685429 437.08698 267.768762 431.300521 273.550013 419.73802 C 279.336471 408.170312 282.227096 391.102602 282.227096 368.529685 L 282.227096 261.894263 L 242.451053 261.894263 L 242.451053 133.670299 L 424.414603 133.670299 L 424.414603 566.998444 L 364.534392 566.998444 L 339.357307 504.581774 C 312.836473 550.847401 271.857304 573.982819 216.42501 573.982819 Z M 450.419812 566.998444 L 450.419812 -177.360965 L 748.544826 -177.360965 L 748.544826 -33.694292 L 601.914611 -33.694292 L 601.914611 111.243215 L 742.409409 111.243215 L 742.409409 251.524471 L 601.914611 251.524471 L 601.914611 422.274479 L 758.06566 422.274479 L 758.06566 566.998444 Z M 767.56566 566.998444 L 767.56566 -177.360965 L 911.445875 -177.360965 L 911.445875 566.998444 Z M 938.346918 566.998444 L 938.346918 -177.360965 L 1087.305258 -177.360965 L 1087.305258 440.472396 L 1240.706307 440.472396 L 1240.706307 566.998444 Z M 1426.154232 573.982819 C 1358.58652 573.982819 1309.779227 557.269277 1279.73235 523.836984 C 1249.690682 490.264065 1234.66464 436.170313 1234.66464 361.550518 L 1234.66464 288.764056 L 1381.086521 288.764056 L 1381.086521 381.435935 C 1381.086521 418.534895 1392.93548 437.08698 1416.633398 437.08698 C 1429.888607 437.08698 1439.128191 433.206771 1444.346941 425.446354 C 1449.565691 417.55052 1452.175066 404.357811 1452.175066 385.883852 C 1452.175066 361.618226 1449.284441 341.586975 1443.503191 325.7901 C 1437.716732 309.852599 1430.31569 296.519265 1421.28444 285.800514 C 1412.399023 275.081764 1396.388606 258.43593 1373.253188 235.86822 L 1309.14381 171.753634 C 1259.492766 123.232799 1234.66464 69.488005 1234.66464 10.52446 C 1234.66464 -52.949501 1249.263599 -101.262003 1278.466725 -134.413046 C 1307.664643 -167.699506 1350.263603 -184.34534 1406.263606 -184.34534 C 1473.263609 -184.34534 1521.508403 -166.569298 1550.987571 -131.02763 C 1580.471947 -95.480753 1595.211531 -39.902625 1595.211531 35.706753 L 1443.503191 35.706753 L 1442.654233 -15.496374 C 1442.654233 -25.23075 1439.904232 -32.991167 1434.404232 -38.772417 C 1428.904232 -44.558876 1421.28444 -47.449501 1411.555273 -47.449501 C 1399.987564 -47.449501 1391.31048 -44.272417 1385.52923 -37.928667 C 1379.742771 -31.579708 1376.852146 -22.902625 1376.852146 -11.902624 C 1376.852146 12.357794 1390.675064 37.46717 1418.320898 63.425504 L 1505.07611 146.57655 C 1525.247986 166.326551 1541.961529 185.014051 1555.221946 202.649469 C 1568.622988 220.279678 1579.341739 241.086971 1587.383406 265.066138 C 1595.419865 289.045306 1599.440698 317.467182 1599.440698 350.336976 C 1599.440698 423.685937 1586.039656 479.331773 1559.24278 517.279692 C 1532.440695 555.081777 1488.07611 573.982819 1426.154232 573.982819 Z M 1793.596957 573.982819 C 1733.503204 573.982819 1687.872994 555.644277 1656.695909 518.967192 C 1625.524033 482.295315 1609.93549 430.738021 1609.93549 364.300518 L 1609.93549 9.68071 C 1609.93549 -54.360959 1625.524033 -102.673462 1656.695909 -135.256796 C 1687.872994 -167.980756 1733.503204 -184.34534 1793.596957 -184.34534 C 1853.685501 -184.34534 1899.315712 -167.980756 1930.492796 -135.256796 C 1961.805298 -102.673462 1977.461549 -54.360959 1977.461549 9.68071 L 1977.461549 364.300518 C 1977.461549 431.300521 1961.805298 482.99844 1930.492796 519.394275 C 1899.315712 555.784902 1853.685501 573.982819 1793.596957 573.982819 Z M 1793.596957 437.08698 C 1806.997999 437.08698 1815.951125 431.300521 1820.46675 419.73802 C 1825.123 408.170312 1827.451125 391.946353 1827.451125 371.071352 L 1827.451125 7.139043 C 1827.451125 -9.079707 1825.263625 -22.1995 1820.888625 -32.215125 C 1816.659458 -42.371376 1807.841749 -47.449501 1794.440707 -47.449501 C 1769.612581 -47.449501 1757.201122 -28.689083 1757.201122 8.831752 L 1757.201122 371.915102 C 1757.201122 393.357811 1759.810497 409.58177 1765.029247 420.58177 C 1770.247998 431.586979 1779.768831 437.08698 1793.596957 437.08698 Z M 2004.33655 566.998444 L 2004.33655 -177.360965 L 2157.737598 -177.360965 L 2226.081352 178.738009 L 2226.081352 -177.360965 L 2369.956358 -177.360965 L 2369.956358 566.998444 L 2224.388643 566.998444 L 2149.909473 194.39426 L 2149.909473 566.998444 Z M 2004.33655 566.998444 " stroke="#ffffff" stroke-width="32.500011" stroke-opacity="1" stroke-miterlimit="4"/><g fill="#ff00ff" fill-opacity="1"><g transform="translate(69.741754, 512.668501)"><g><path d="M 297.804688 -69.664062 C 308.414062 -87.65625 315.335938 -83.273438 330.332031 -79.8125 C 348.324219 -72.894531 365.164062 -66.433594 380.386719 -60.898438 C 385.230469 -59.054688 388.460938 -55.132812 389.152344 -50.058594 C 393.074219 -21.683594 399.070312 -6.691406 408.300781 -3.691406 C 409.914062 -3 411.527344 -3.230469 412.914062 -3.921875 C 414.296875 -4.613281 415.449219 -5.996094 415.910156 -7.382812 C 416.835938 -10.609375 415.21875 -14.070312 411.988281 -15.226562 C 408.070312 -16.609375 405.070312 -25.835938 402.761719 -39.90625 C 402.070312 -42.90625 403.222656 -45.90625 405.53125 -47.75 C 407.605469 -49.59375 410.835938 -50.289062 413.605469 -49.363281 C 429.289062 -43.597656 445.898438 -40.136719 462.738281 -39.214844 C 464.125 -39.214844 465.738281 -39.90625 466.890625 -41.0625 C 468.042969 -42.214844 468.507812 -43.828125 468.507812 -45.445312 C 468.507812 -47.058594 467.8125 -48.671875 466.660156 -49.59375 C 465.507812 -50.75 463.890625 -51.441406 462.277344 -51.441406 C 443.59375 -52.824219 425.371094 -57.207031 407.835938 -64.128906 C 402.761719 -65.742188 399.070312 -70.355469 398.609375 -75.664062 C 394.917969 -123.875 394.457031 -188.695312 394.226562 -224.910156 C 393.996094 -275.429688 393.535156 -295.035156 391.230469 -300.574219 C 390.304688 -303.109375 388 -304.726562 385.460938 -304.496094 C 382.695312 -304.261719 380.617188 -302.417969 379.925781 -299.878906 C 366.316406 -250.746094 349.476562 -202.535156 329.40625 -155.707031 C 322.71875 -140.484375 316.257812 -126.640625 309.570312 -113.722656 C 306.570312 -107.726562 299.1875 -104.957031 292.960938 -107.265625 C 217.296875 -136.332031 130.792969 -167.472656 64.589844 -172.546875 C 38.984375 -174.390625 22.375 -169.777344 15.226562 -158.9375 C 9.226562 -149.710938 10.378906 -137.484375 18.453125 -122.488281 C 43.828125 -76.125 141.636719 -2.308594 210.148438 -2.308594 C 242.441406 -2.308594 272.199219 -30.679688 297.804688 -69.664062 Z M 53.285156 -160.78125 C 56.515625 -160.78125 59.976562 -160.78125 63.667969 -160.550781 C 126.640625 -155.707031 209.457031 -126.410156 282.8125 -98.269531 C 286.5 -96.882812 289.5 -93.65625 290.652344 -89.964844 C 292.039062 -86.042969 291.34375 -81.890625 289.269531 -78.429688 C 262.28125 -36.214844 235.523438 -14.53125 210.148438 -14.53125 C 151.09375 -14.53125 55.132812 -80.507812 29.066406 -128.257812 C 25.144531 -135.636719 21.222656 -145.789062 25.375 -152.246094 C 28.835938 -157.785156 38.753906 -160.78125 53.285156 -160.78125 Z M 377.386719 -249.363281 C 379.003906 -254.207031 382.003906 -253.285156 382.003906 -247.976562 C 382.003906 -240.597656 382.003906 -232.753906 382.234375 -224.910156 C 382.464844 -168.164062 383.386719 -122.949219 385.460938 -88.582031 C 385.921875 -84.660156 384.078125 -81.199219 381.078125 -78.890625 C 378.082031 -76.585938 374.160156 -76.125 370.699219 -77.507812 C 356.167969 -83.042969 340.480469 -89.042969 324.332031 -95.269531 L 315.335938 -98.730469 C 340.480469 -146.941406 361.242188 -197.460938 377.386719 -249.363281 Z M 377.386719 -249.363281 "/></g></g></g><g fill="#ff00ff" fill-opacity="1"><g transform="translate(550.472869, 512.668501)"><g><path d="M 22.605469 -2.539062 L 24.683594 -5.765625 C 26.527344 -8.535156 25.835938 -12.226562 23.066406 -14.070312 C 20.070312 -15.917969 16.378906 -15.226562 14.53125 -12.457031 L 12.457031 -9.226562 C 11.304688 -7.382812 11.074219 -5.074219 12.226562 -3 C 13.148438 -1.152344 15.226562 0 17.53125 0 C 19.375 0.230469 21.453125 -0.921875 22.605469 -2.539062 Z M 22.605469 -2.539062 "/></g></g></g><g fill="#ff00ff" fill-opacity="1"><g transform="translate(587.842543, 512.668501)"><g/></g></g><g fill="#ff00ff" fill-opacity="1"><g transform="translate(673.654413, 512.668501)"><g><path d="M 167.242188 -32.292969 C 180.621094 -73.125 144.171875 -109.800781 109.109375 -145.558594 C 75.664062 -179.46875 43.828125 -211.761719 59.285156 -242.671875 C 70.816406 -266.203125 105.882812 -263.664062 125.71875 -259.972656 C 179.003906 -249.824219 237.597656 -211.992188 239.90625 -186.386719 C 240.597656 -177.160156 233.445312 -169.546875 218.222656 -163.78125 C 197 -158.015625 174.855469 -156.859375 153.167969 -159.859375 C 149.941406 -160.320312 146.941406 -158.015625 146.480469 -154.785156 C 146.019531 -151.554688 148.324219 -148.554688 151.554688 -147.863281 C 175.316406 -144.402344 199.304688 -146.019531 222.605469 -152.476562 C 248.441406 -162.167969 252.824219 -176.929688 251.898438 -187.308594 C 248.902344 -222.375 182.695312 -261.359375 128.027344 -271.738281 C 87.886719 -279.351562 59.746094 -270.816406 48.441406 -247.976562 C 29.066406 -209.457031 65.511719 -172.546875 100.574219 -137.023438 C 133.101562 -104.035156 166.78125 -69.894531 155.9375 -35.984375 C 149.019531 -14.53125 112.800781 -6.921875 82.351562 -8.996094 C 50.980469 -11.074219 26.296875 -22.375 23.761719 -35.753906 C 22.375 -42.90625 26.066406 -62.28125 87.65625 -90.425781 C 89.503906 -91.347656 90.886719 -93.195312 91.117188 -95.5 C 91.347656 -97.578125 90.425781 -99.882812 88.582031 -101.035156 C 86.734375 -102.191406 84.429688 -102.421875 82.582031 -101.5 C 31.601562 -78.199219 7.84375 -55.363281 11.765625 -33.679688 C 16.148438 -9.6875 52.132812 1.152344 81.660156 3 C 85.121094 3.230469 88.582031 3.460938 92.039062 3.460938 C 123.414062 3.460938 158.707031 -5.765625 167.242188 -32.292969 Z M 167.242188 -32.292969 "/></g></g></g><g fill="#ff00ff" fill-opacity="1"><g transform="translate(870.191297, 512.668501)"><g><path d="M 168.164062 -65.511719 C 167.011719 -66.664062 165.625 -67.128906 164.011719 -67.128906 C 162.398438 -67.128906 160.78125 -66.664062 159.628906 -65.511719 C 131.949219 -37.832031 92.730469 -25.144531 54.210938 -31.601562 C 51.210938 -32.292969 49.132812 -35.0625 49.59375 -38.0625 C 51.441406 -49.132812 50.519531 -60.4375 44.058594 -64.128906 C 39.90625 -66.433594 33.679688 -66.664062 26.296875 -54.210938 C 23.527344 -50.058594 22.605469 -44.980469 23.527344 -40.136719 C 24.683594 -35.292969 27.679688 -30.910156 31.832031 -28.375 C 34.371094 -26.296875 31.371094 -22.835938 29.757812 -21.222656 C 25.375 -15.917969 17.761719 -14.992188 12.457031 -19.144531 C 5.765625 -22.144531 2.769531 -29.527344 5.304688 -36.214844 C 8.304688 -48.441406 20.300781 -59.054688 24.683594 -59.054688 C 27.910156 -59.054688 30.679688 -61.820312 30.679688 -65.050781 C 30.910156 -68.28125 28.144531 -71.046875 24.914062 -71.28125 L 24.683594 -71.28125 C 13.148438 -71.28125 -2.308594 -55.59375 -6.457031 -39.214844 C -10.378906 -27.21875 -4.84375 -14.070312 6.691406 -8.535156 C 11.074219 -5.996094 15.917969 -4.84375 20.992188 -4.613281 C 30.910156 -5.074219 39.675781 -11.074219 43.828125 -20.300781 C 44.289062 -20.992188 45.445312 -21.453125 46.367188 -21.222656 C 75.664062 -12.457031 129.179688 -17.992188 168.164062 -56.746094 C 169.316406 -57.898438 170.007812 -59.515625 170.007812 -61.128906 C 170.007812 -62.746094 169.316406 -64.359375 168.164062 -65.511719 Z M 37.601562 -39.214844 C 35.0625 -41.523438 34.601562 -45.210938 36.675781 -47.980469 C 37.371094 -49.132812 37.832031 -49.828125 38.292969 -50.519531 C 38.523438 -46.828125 38.292969 -42.90625 37.601562 -39.214844 Z M 37.601562 -39.214844 "/></g></g></g><g fill="#ff00ff" fill-opacity="1"><g transform="translate(1029.58918, 512.668501)"><g><path d="M 192.847656 -55.824219 C 190.539062 -58.363281 186.617188 -58.59375 184.082031 -56.285156 C 183.386719 -55.59375 114.878906 5.996094 72.433594 -21.914062 C 55.59375 -32.988281 51.441406 -59.746094 51.441406 -59.976562 C 51.210938 -62.746094 49.132812 -64.820312 46.367188 -65.28125 C 43.828125 -65.511719 41.0625 -64.128906 39.90625 -61.820312 C 29.066406 -37.832031 9.917969 -7.382812 4.613281 -10.84375 C 4.152344 -10.84375 3.230469 -11.765625 2.539062 -13.378906 C -0.230469 -20.992188 0.691406 -29.296875 4.613281 -36.445312 C 13.378906 -54.441406 29.527344 -67.359375 48.902344 -72.203125 C 50.980469 -72.664062 52.59375 -74.277344 53.285156 -76.355469 C 53.980469 -78.429688 53.285156 -80.738281 51.902344 -82.351562 C 50.289062 -83.734375 48.210938 -84.429688 46.136719 -83.964844 C 23.066406 -78.429688 3.921875 -62.746094 -6.457031 -41.523438 C -11.996094 -31.140625 -12.6875 -18.683594 -8.304688 -7.84375 C -6.226562 -2.539062 -1.152344 1.152344 4.613281 1.152344 L 4.84375 1.152344 C 16.148438 0.921875 30.21875 -13.148438 39.90625 -28.375 C 41.0625 -30.21875 43.136719 -31.140625 45.210938 -30.910156 C 47.289062 -30.910156 49.132812 -29.757812 50.058594 -27.910156 C 53.980469 -21.453125 59.285156 -15.917969 65.742188 -11.996094 C 116.03125 21.453125 189.15625 -44.519531 192.386719 -47.289062 C 193.539062 -48.441406 194.230469 -50.058594 194.230469 -51.441406 C 194.460938 -53.054688 193.769531 -54.671875 192.847656 -55.824219 Z M 192.847656 -55.824219 "/></g></g></g><g fill="#ff00ff" fill-opacity="1"><g transform="translate(1215.976254, 512.668501)"><g><path d="M 198.84375 -60.667969 C 197.691406 -61.820312 196.304688 -62.511719 194.691406 -62.511719 C 193.078125 -62.511719 191.460938 -61.820312 190.308594 -60.667969 C 150.402344 -21.683594 79.582031 -13.378906 64.359375 -22.375 C 53.980469 -28.375 55.132812 -35.523438 62.511719 -49.828125 C 65.972656 -56.746094 69.894531 -64.820312 63.207031 -69.664062 C 56.976562 -74.277344 50.980469 -71.28125 45.675781 -68.511719 C 38.0625 -64.128906 29.527344 -61.820312 20.53125 -61.820312 C 18.453125 -61.820312 16.609375 -65.511719 17.070312 -66.894531 C 29.988281 -95.269531 24.222656 -100.574219 22.144531 -102.652344 C 18.683594 -106.113281 13.378906 -105.882812 6.921875 -101.960938 C -3.691406 -94.347656 -8.304688 -80.738281 -4.613281 -68.050781 C -3.691406 -64.589844 -2.074219 -61.359375 0.230469 -58.59375 C 0 -56.054688 1.152344 -53.746094 3.460938 -52.59375 C 4.84375 -51.902344 6.457031 -51.902344 8.074219 -52.363281 C 11.996094 -50.519531 16.378906 -49.59375 20.761719 -49.59375 C 30.21875 -49.363281 39.445312 -51.441406 47.75 -56.054688 C 50.980469 -57.667969 52.132812 -56.285156 51.671875 -55.363281 C 46.136719 -44.519531 36.214844 -24.683594 58.363281 -11.765625 C 66.203125 -8.074219 74.96875 -6.457031 83.734375 -7.152344 C 116.03125 -7.152344 166.78125 -20.992188 198.613281 -52.132812 C 199.765625 -53.054688 200.457031 -54.671875 200.457031 -56.285156 C 200.6875 -57.898438 199.996094 -59.515625 198.84375 -60.667969 Z M 6.691406 -73.355469 C 5.304688 -80.046875 7.613281 -86.964844 12.917969 -91.347656 C 11.304688 -85.121094 9.226562 -79.121094 6.691406 -73.125 Z M 6.691406 -73.355469 "/></g></g></g><g fill="#ff00ff" fill-opacity="1"><g transform="translate(1405.131428, 512.668501)"><g><path d="M 193.539062 -59.285156 C 192.386719 -60.4375 191 -61.359375 189.386719 -61.359375 C 187.773438 -61.589844 186.15625 -61.128906 185.003906 -60.207031 C 184.082031 -59.515625 95.269531 11.074219 21.222656 -19.375 C 6.226562 -25.605469 5.535156 -33.679688 5.996094 -38.0625 C 5.996094 -38.753906 6.226562 -39.445312 6.921875 -39.90625 C 7.382812 -40.367188 8.304688 -40.367188 8.996094 -40.136719 C 23.992188 -39.214844 38.984375 -43.136719 51.902344 -51.210938 C 62.976562 -58.363281 64.820312 -66.203125 64.128906 -71.28125 C 63.667969 -79.582031 56.976562 -86.273438 48.441406 -86.503906 C 30.21875 -87.425781 -0.230469 -65.742188 -5.304688 -42.675781 C -7.382812 -34.140625 -7.152344 -17.992188 16.609375 -8.304688 C 31.140625 -2.308594 46.367188 0.460938 61.820312 0.460938 C 128.027344 0.460938 189.386719 -48.210938 192.617188 -50.75 C 193.769531 -51.671875 194.691406 -53.285156 194.691406 -54.671875 C 194.921875 -56.285156 194.460938 -57.898438 193.539062 -59.285156 Z M 14.300781 -54.210938 C 23.296875 -66.664062 38.292969 -74.96875 47.75 -74.277344 C 50.289062 -74.277344 51.671875 -73.355469 52.132812 -69.894531 C 52.363281 -67.589844 49.828125 -64.359375 45.210938 -61.359375 C 35.753906 -55.132812 7.382812 -44.980469 14.300781 -54.210938 Z M 14.300781 -54.210938 "/></g></g></g><g fill="#ff00ff" fill-opacity="1"><g transform="translate(1589.903789, 512.668501)"><g><path d="M 158.246094 -63.898438 C 157.089844 -65.050781 155.707031 -65.511719 154.09375 -65.511719 C 152.476562 -65.511719 150.863281 -65.050781 149.710938 -63.898438 C 127.566406 -42.90625 100.34375 -28.144531 70.585938 -20.992188 C 69.433594 -20.53125 68.050781 -20.992188 67.359375 -21.914062 C 66.664062 -23.066406 66.433594 -24.222656 67.128906 -25.375 C 71.28125 -33.449219 70.355469 -43.136719 65.050781 -50.519531 C 61.820312 -54.902344 57.667969 -58.59375 52.824219 -61.359375 C 46.367188 -65.742188 39.214844 -70.816406 38.984375 -76.125 C 39.214844 -79.121094 40.367188 -81.890625 42.445312 -84.199219 L 54.902344 -95.960938 C 57.207031 -98.269531 57.4375 -101.960938 55.363281 -104.265625 C 53.285156 -106.804688 49.828125 -107.265625 47.058594 -105.1875 C 42.214844 -101.5 37.601562 -97.347656 33.679688 -92.5 L -1.84375 -59.285156 C -3.460938 -57.898438 -4.152344 -55.59375 -3.691406 -53.515625 C -3.230469 -51.210938 -1.613281 -49.59375 0.460938 -48.902344 C 2.539062 -48.441406 4.84375 -48.902344 6.457031 -50.519531 L 23.992188 -66.894531 C 24.914062 -67.820312 26.066406 -68.050781 27.21875 -68.050781 C 28.375 -67.820312 29.296875 -67.128906 29.757812 -66.203125 C 34.140625 -60.207031 39.675781 -55.132812 45.90625 -51.441406 C 49.363281 -49.363281 52.363281 -47.058594 54.902344 -44.058594 C 57.207031 -41.523438 58.363281 -38.0625 57.667969 -34.601562 C 56.976562 -31.140625 54.902344 -28.144531 51.902344 -26.527344 C 37.140625 -18.222656 18.453125 -22.144531 8.304688 -35.753906 C 6.691406 -38.292969 3 -39.214844 0.230469 -37.371094 C -2.539062 -35.753906 -3.460938 -32.292969 -1.84375 -29.296875 C 5.765625 -16.148438 19.375 -7.613281 34.601562 -6.457031 C 38.523438 -5.765625 42.214844 -5.535156 46.136719 -5.535156 C 85.121094 -5.535156 133.101562 -29.988281 158.246094 -55.363281 C 160.550781 -57.667969 160.550781 -61.589844 158.246094 -63.898438 Z M 158.246094 -63.898438 "/></g></g></g><g fill="#00ffff" fill-opacity="1"><g transform="translate(61.091065, 512.668501)"><g><path d="M 297.804688 -69.664062 C 308.414062 -87.65625 315.335938 -83.273438 330.332031 -79.8125 C 348.324219 -72.894531 365.164062 -66.433594 380.386719 -60.898438 C 385.230469 -59.054688 388.460938 -55.132812 389.152344 -50.058594 C 393.074219 -21.683594 399.070312 -6.691406 408.300781 -3.691406 C 409.914062 -3 411.527344 -3.230469 412.914062 -3.921875 C 414.296875 -4.613281 415.449219 -5.996094 415.910156 -7.382812 C 416.835938 -10.609375 415.21875 -14.070312 411.988281 -15.226562 C 408.070312 -16.609375 405.070312 -25.835938 402.761719 -39.90625 C 402.070312 -42.90625 403.222656 -45.90625 405.53125 -47.75 C 407.605469 -49.59375 410.835938 -50.289062 413.605469 -49.363281 C 429.289062 -43.597656 445.898438 -40.136719 462.738281 -39.214844 C 464.125 -39.214844 465.738281 -39.90625 466.890625 -41.0625 C 468.042969 -42.214844 468.507812 -43.828125 468.507812 -45.445312 C 468.507812 -47.058594 467.8125 -48.671875 466.660156 -49.59375 C 465.507812 -50.75 463.890625 -51.441406 462.277344 -51.441406 C 443.59375 -52.824219 425.371094 -57.207031 407.835938 -64.128906 C 402.761719 -65.742188 399.070312 -70.355469 398.609375 -75.664062 C 394.917969 -123.875 394.457031 -188.695312 394.226562 -224.910156 C 393.996094 -275.429688 393.535156 -295.035156 391.230469 -300.574219 C 390.304688 -303.109375 388 -304.726562 385.460938 -304.496094 C 382.695312 -304.261719 380.617188 -302.417969 379.925781 -299.878906 C 366.316406 -250.746094 349.476562 -202.535156 329.40625 -155.707031 C 322.71875 -140.484375 316.257812 -126.640625 309.570312 -113.722656 C 306.570312 -107.726562 299.1875 -104.957031 292.960938 -107.265625 C 217.296875 -136.332031 130.792969 -167.472656 64.589844 -172.546875 C 38.984375 -174.390625 22.375 -169.777344 15.226562 -158.9375 C 9.226562 -149.710938 10.378906 -137.484375 18.453125 -122.488281 C 43.828125 -76.125 141.636719 -2.308594 210.148438 -2.308594 C 242.441406 -2.308594 272.199219 -30.679688 297.804688 -69.664062 Z M 53.285156 -160.78125 C 56.515625 -160.78125 59.976562 -160.78125 63.667969 -160.550781 C 126.640625 -155.707031 209.457031 -126.410156 282.8125 -98.269531 C 286.5 -96.882812 289.5 -93.65625 290.652344 -89.964844 C 292.039062 -86.042969 291.34375 -81.890625 289.269531 -78.429688 C 262.28125 -36.214844 235.523438 -14.53125 210.148438 -14.53125 C 151.09375 -14.53125 55.132812 -80.507812 29.066406 -128.257812 C 25.144531 -135.636719 21.222656 -145.789062 25.375 -152.246094 C 28.835938 -157.785156 38.753906 -160.78125 53.285156 -160.78125 Z M 377.386719 -249.363281 C 379.003906 -254.207031 382.003906 -253.285156 382.003906 -247.976562 C 382.003906 -240.597656 382.003906 -232.753906 382.234375 -224.910156 C 382.464844 -168.164062 383.386719 -122.949219 385.460938 -88.582031 C 385.921875 -84.660156 384.078125 -81.199219 381.078125 -78.890625 C 378.082031 -76.585938 374.160156 -76.125 370.699219 -77.507812 C 356.167969 -83.042969 340.480469 -89.042969 324.332031 -95.269531 L 315.335938 -98.730469 C 340.480469 -146.941406 361.242188 -197.460938 377.386719 -249.363281 Z M 377.386719 -249.363281 "/></g></g></g><g fill="#00ffff" fill-opacity="1"><g transform="translate(541.82218, 512.668501)"><g><path d="M 22.605469 -2.539062 L 24.683594 -5.765625 C 26.527344 -8.535156 25.835938 -12.226562 23.066406 -14.070312 C 20.070312 -15.917969 16.378906 -15.226562 14.53125 -12.457031 L 12.457031 -9.226562 C 11.304688 -7.382812 11.074219 -5.074219 12.226562 -3 C 13.148438 -1.152344 15.226562 0 17.53125 0 C 19.375 0.230469 21.453125 -0.921875 22.605469 -2.539062 Z M 22.605469 -2.539062 "/></g></g></g><g fill="#00ffff" fill-opacity="1"><g transform="translate(579.191853, 512.668501)"><g/></g></g><g fill="#00ffff" fill-opacity="1"><g transform="translate(665.003724, 512.668501)"><g><path d="M 167.242188 -32.292969 C 180.621094 -73.125 144.171875 -109.800781 109.109375 -145.558594 C 75.664062 -179.46875 43.828125 -211.761719 59.285156 -242.671875 C 70.816406 -266.203125 105.882812 -263.664062 125.71875 -259.972656 C 179.003906 -249.824219 237.597656 -211.992188 239.90625 -186.386719 C 240.597656 -177.160156 233.445312 -169.546875 218.222656 -163.78125 C 197 -158.015625 174.855469 -156.859375 153.167969 -159.859375 C 149.941406 -160.320312 146.941406 -158.015625 146.480469 -154.785156 C 146.019531 -151.554688 148.324219 -148.554688 151.554688 -147.863281 C 175.316406 -144.402344 199.304688 -146.019531 222.605469 -152.476562 C 248.441406 -162.167969 252.824219 -176.929688 251.898438 -187.308594 C 248.902344 -222.375 182.695312 -261.359375 128.027344 -271.738281 C 87.886719 -279.351562 59.746094 -270.816406 48.441406 -247.976562 C 29.066406 -209.457031 65.511719 -172.546875 100.574219 -137.023438 C 133.101562 -104.035156 166.78125 -69.894531 155.9375 -35.984375 C 149.019531 -14.53125 112.800781 -6.921875 82.351562 -8.996094 C 50.980469 -11.074219 26.296875 -22.375 23.761719 -35.753906 C 22.375 -42.90625 26.066406 -62.28125 87.65625 -90.425781 C 89.503906 -91.347656 90.886719 -93.195312 91.117188 -95.5 C 91.347656 -97.578125 90.425781 -99.882812 88.582031 -101.035156 C 86.734375 -102.191406 84.429688 -102.421875 82.582031 -101.5 C 31.601562 -78.199219 7.84375 -55.363281 11.765625 -33.679688 C 16.148438 -9.6875 52.132812 1.152344 81.660156 3 C 85.121094 3.230469 88.582031 3.460938 92.039062 3.460938 C 123.414062 3.460938 158.707031 -5.765625 167.242188 -32.292969 Z M 167.242188 -32.292969 "/></g></g></g><g fill="#00ffff" fill-opacity="1"><g transform="translate(861.540608, 512.668501)"><g><path d="M 168.164062 -65.511719 C 167.011719 -66.664062 165.625 -67.128906 164.011719 -67.128906 C 162.398438 -67.128906 160.78125 -66.664062 159.628906 -65.511719 C 131.949219 -37.832031 92.730469 -25.144531 54.210938 -31.601562 C 51.210938 -32.292969 49.132812 -35.0625 49.59375 -38.0625 C 51.441406 -49.132812 50.519531 -60.4375 44.058594 -64.128906 C 39.90625 -66.433594 33.679688 -66.664062 26.296875 -54.210938 C 23.527344 -50.058594 22.605469 -44.980469 23.527344 -40.136719 C 24.683594 -35.292969 27.679688 -30.910156 31.832031 -28.375 C 34.371094 -26.296875 31.371094 -22.835938 29.757812 -21.222656 C 25.375 -15.917969 17.761719 -14.992188 12.457031 -19.144531 C 5.765625 -22.144531 2.769531 -29.527344 5.304688 -36.214844 C 8.304688 -48.441406 20.300781 -59.054688 24.683594 -59.054688 C 27.910156 -59.054688 30.679688 -61.820312 30.679688 -65.050781 C 30.910156 -68.28125 28.144531 -71.046875 24.914062 -71.28125 L 24.683594 -71.28125 C 13.148438 -71.28125 -2.308594 -55.59375 -6.457031 -39.214844 C -10.378906 -27.21875 -4.84375 -14.070312 6.691406 -8.535156 C 11.074219 -5.996094 15.917969 -4.84375 20.992188 -4.613281 C 30.910156 -5.074219 39.675781 -11.074219 43.828125 -20.300781 C 44.289062 -20.992188 45.445312 -21.453125 46.367188 -21.222656 C 75.664062 -12.457031 129.179688 -17.992188 168.164062 -56.746094 C 169.316406 -57.898438 170.007812 -59.515625 170.007812 -61.128906 C 170.007812 -62.746094 169.316406 -64.359375 168.164062 -65.511719 Z M 37.601562 -39.214844 C 35.0625 -41.523438 34.601562 -45.210938 36.675781 -47.980469 C 37.371094 -49.132812 37.832031 -49.828125 38.292969 -50.519531 C 38.523438 -46.828125 38.292969 -42.90625 37.601562 -39.214844 Z M 37.601562 -39.214844 "/></g></g></g><g fill="#00ffff" fill-opacity="1"><g transform="translate(1020.93849, 512.668501)"><g><path d="M 192.847656 -55.824219 C 190.539062 -58.363281 186.617188 -58.59375 184.082031 -56.285156 C 183.386719 -55.59375 114.878906 5.996094 72.433594 -21.914062 C 55.59375 -32.988281 51.441406 -59.746094 51.441406 -59.976562 C 51.210938 -62.746094 49.132812 -64.820312 46.367188 -65.28125 C 43.828125 -65.511719 41.0625 -64.128906 39.90625 -61.820312 C 29.066406 -37.832031 9.917969 -7.382812 4.613281 -10.84375 C 4.152344 -10.84375 3.230469 -11.765625 2.539062 -13.378906 C -0.230469 -20.992188 0.691406 -29.296875 4.613281 -36.445312 C 13.378906 -54.441406 29.527344 -67.359375 48.902344 -72.203125 C 50.980469 -72.664062 52.59375 -74.277344 53.285156 -76.355469 C 53.980469 -78.429688 53.285156 -80.738281 51.902344 -82.351562 C 50.289062 -83.734375 48.210938 -84.429688 46.136719 -83.964844 C 23.066406 -78.429688 3.921875 -62.746094 -6.457031 -41.523438 C -11.996094 -31.140625 -12.6875 -18.683594 -8.304688 -7.84375 C -6.226562 -2.539062 -1.152344 1.152344 4.613281 1.152344 L 4.84375 1.152344 C 16.148438 0.921875 30.21875 -13.148438 39.90625 -28.375 C 41.0625 -30.21875 43.136719 -31.140625 45.210938 -30.910156 C 47.289062 -30.910156 49.132812 -29.757812 50.058594 -27.910156 C 53.980469 -21.453125 59.285156 -15.917969 65.742188 -11.996094 C 116.03125 21.453125 189.15625 -44.519531 192.386719 -47.289062 C 193.539062 -48.441406 194.230469 -50.058594 194.230469 -51.441406 C 194.460938 -53.054688 193.769531 -54.671875 192.847656 -55.824219 Z M 192.847656 -55.824219 "/></g></g></g><g fill="#00ffff" fill-opacity="1"><g transform="translate(1207.325565, 512.668501)"><g><path d="M 198.84375 -60.667969 C 197.691406 -61.820312 196.304688 -62.511719 194.691406 -62.511719 C 193.078125 -62.511719 191.460938 -61.820312 190.308594 -60.667969 C 150.402344 -21.683594 79.582031 -13.378906 64.359375 -22.375 C 53.980469 -28.375 55.132812 -35.523438 62.511719 -49.828125 C 65.972656 -56.746094 69.894531 -64.820312 63.207031 -69.664062 C 56.976562 -74.277344 50.980469 -71.28125 45.675781 -68.511719 C 38.0625 -64.128906 29.527344 -61.820312 20.53125 -61.820312 C 18.453125 -61.820312 16.609375 -65.511719 17.070312 -66.894531 C 29.988281 -95.269531 24.222656 -100.574219 22.144531 -102.652344 C 18.683594 -106.113281 13.378906 -105.882812 6.921875 -101.960938 C -3.691406 -94.347656 -8.304688 -80.738281 -4.613281 -68.050781 C -3.691406 -64.589844 -2.074219 -61.359375 0.230469 -58.59375 C 0 -56.054688 1.152344 -53.746094 3.460938 -52.59375 C 4.84375 -51.902344 6.457031 -51.902344 8.074219 -52.363281 C 11.996094 -50.519531 16.378906 -49.59375 20.761719 -49.59375 C 30.21875 -49.363281 39.445312 -51.441406 47.75 -56.054688 C 50.980469 -57.667969 52.132812 -56.285156 51.671875 -55.363281 C 46.136719 -44.519531 36.214844 -24.683594 58.363281 -11.765625 C 66.203125 -8.074219 74.96875 -6.457031 83.734375 -7.152344 C 116.03125 -7.152344 166.78125 -20.992188 198.613281 -52.132812 C 199.765625 -53.054688 200.457031 -54.671875 200.457031 -56.285156 C 200.6875 -57.898438 199.996094 -59.515625 198.84375 -60.667969 Z M 6.691406 -73.355469 C 5.304688 -80.046875 7.613281 -86.964844 12.917969 -91.347656 C 11.304688 -85.121094 9.226562 -79.121094 6.691406 -73.125 Z M 6.691406 -73.355469 "/></g></g></g><g fill="#00ffff" fill-opacity="1"><g transform="translate(1396.480738, 512.668501)"><g><path d="M 193.539062 -59.285156 C 192.386719 -60.4375 191 -61.359375 189.386719 -61.359375 C 187.773438 -61.589844 186.15625 -61.128906 185.003906 -60.207031 C 184.082031 -59.515625 95.269531 11.074219 21.222656 -19.375 C 6.226562 -25.605469 5.535156 -33.679688 5.996094 -38.0625 C 5.996094 -38.753906 6.226562 -39.445312 6.921875 -39.90625 C 7.382812 -40.367188 8.304688 -40.367188 8.996094 -40.136719 C 23.992188 -39.214844 38.984375 -43.136719 51.902344 -51.210938 C 62.976562 -58.363281 64.820312 -66.203125 64.128906 -71.28125 C 63.667969 -79.582031 56.976562 -86.273438 48.441406 -86.503906 C 30.21875 -87.425781 -0.230469 -65.742188 -5.304688 -42.675781 C -7.382812 -34.140625 -7.152344 -17.992188 16.609375 -8.304688 C 31.140625 -2.308594 46.367188 0.460938 61.820312 0.460938 C 128.027344 0.460938 189.386719 -48.210938 192.617188 -50.75 C 193.769531 -51.671875 194.691406 -53.285156 194.691406 -54.671875 C 194.921875 -56.285156 194.460938 -57.898438 193.539062 -59.285156 Z M 14.300781 -54.210938 C 23.296875 -66.664062 38.292969 -74.96875 47.75 -74.277344 C 50.289062 -74.277344 51.671875 -73.355469 52.132812 -69.894531 C 52.363281 -67.589844 49.828125 -64.359375 45.210938 -61.359375 C 35.753906 -55.132812 7.382812 -44.980469 14.300781 -54.210938 Z M 14.300781 -54.210938 "/></g></g></g><g fill="#00ffff" fill-opacity="1"><g transform="translate(1581.2531, 512.668501)"><g><path d="M 158.246094 -63.898438 C 157.089844 -65.050781 155.707031 -65.511719 154.09375 -65.511719 C 152.476562 -65.511719 150.863281 -65.050781 149.710938 -63.898438 C 127.566406 -42.90625 100.34375 -28.144531 70.585938 -20.992188 C 69.433594 -20.53125 68.050781 -20.992188 67.359375 -21.914062 C 66.664062 -23.066406 66.433594 -24.222656 67.128906 -25.375 C 71.28125 -33.449219 70.355469 -43.136719 65.050781 -50.519531 C 61.820312 -54.902344 57.667969 -58.59375 52.824219 -61.359375 C 46.367188 -65.742188 39.214844 -70.816406 38.984375 -76.125 C 39.214844 -79.121094 40.367188 -81.890625 42.445312 -84.199219 L 54.902344 -95.960938 C 57.207031 -98.269531 57.4375 -101.960938 55.363281 -104.265625 C 53.285156 -106.804688 49.828125 -107.265625 47.058594 -105.1875 C 42.214844 -101.5 37.601562 -97.347656 33.679688 -92.5 L -1.84375 -59.285156 C -3.460938 -57.898438 -4.152344 -55.59375 -3.691406 -53.515625 C -3.230469 -51.210938 -1.613281 -49.59375 0.460938 -48.902344 C 2.539062 -48.441406 4.84375 -48.902344 6.457031 -50.519531 L 23.992188 -66.894531 C 24.914062 -67.820312 26.066406 -68.050781 27.21875 -68.050781 C 28.375 -67.820312 29.296875 -67.128906 29.757812 -66.203125 C 34.140625 -60.207031 39.675781 -55.132812 45.90625 -51.441406 C 49.363281 -49.363281 52.363281 -47.058594 54.902344 -44.058594 C 57.207031 -41.523438 58.363281 -38.0625 57.667969 -34.601562 C 56.976562 -31.140625 54.902344 -28.144531 51.902344 -26.527344 C 37.140625 -18.222656 18.453125 -22.144531 8.304688 -35.753906 C 6.691406 -38.292969 3 -39.214844 0.230469 -37.371094 C -2.539062 -35.753906 -3.460938 -32.292969 -1.84375 -29.296875 C 5.765625 -16.148438 19.375 -7.613281 34.601562 -6.457031 C 38.523438 -5.765625 42.214844 -5.535156 46.136719 -5.535156 C 85.121094 -5.535156 133.101562 -29.988281 158.246094 -55.363281 C 160.550781 -57.667969 160.550781 -61.589844 158.246094 -63.898438 Z M 158.246094 -63.898438 "/></g></g></g><g fill="#000000" fill-opacity="1"><g transform="translate(65.416407, 512.668501)"><g><path d="M 297.804688 -69.664062 C 308.414062 -87.65625 315.335938 -83.273438 330.332031 -79.8125 C 348.324219 -72.894531 365.164062 -66.433594 380.386719 -60.898438 C 385.230469 -59.054688 388.460938 -55.132812 389.152344 -50.058594 C 393.074219 -21.683594 399.070312 -6.691406 408.300781 -3.691406 C 409.914062 -3 411.527344 -3.230469 412.914062 -3.921875 C 414.296875 -4.613281 415.449219 -5.996094 415.910156 -7.382812 C 416.835938 -10.609375 415.21875 -14.070312 411.988281 -15.226562 C 408.070312 -16.609375 405.070312 -25.835938 402.761719 -39.90625 C 402.070312 -42.90625 403.222656 -45.90625 405.53125 -47.75 C 407.605469 -49.59375 410.835938 -50.289062 413.605469 -49.363281 C 429.289062 -43.597656 445.898438 -40.136719 462.738281 -39.214844 C 464.125 -39.214844 465.738281 -39.90625 466.890625 -41.0625 C 468.042969 -42.214844 468.507812 -43.828125 468.507812 -45.445312 C 468.507812 -47.058594 467.8125 -48.671875 466.660156 -49.59375 C 465.507812 -50.75 463.890625 -51.441406 462.277344 -51.441406 C 443.59375 -52.824219 425.371094 -57.207031 407.835938 -64.128906 C 402.761719 -65.742188 399.070312 -70.355469 398.609375 -75.664062 C 394.917969 -123.875 394.457031 -188.695312 394.226562 -224.910156 C 393.996094 -275.429688 393.535156 -295.035156 391.230469 -300.574219 C 390.304688 -303.109375 388 -304.726562 385.460938 -304.496094 C 382.695312 -304.261719 380.617188 -302.417969 379.925781 -299.878906 C 366.316406 -250.746094 349.476562 -202.535156 329.40625 -155.707031 C 322.71875 -140.484375 316.257812 -126.640625 309.570312 -113.722656 C 306.570312 -107.726562 299.1875 -104.957031 292.960938 -107.265625 C 217.296875 -136.332031 130.792969 -167.472656 64.589844 -172.546875 C 38.984375 -174.390625 22.375 -169.777344 15.226562 -158.9375 C 9.226562 -149.710938 10.378906 -137.484375 18.453125 -122.488281 C 43.828125 -76.125 141.636719 -2.308594 210.148438 -2.308594 C 242.441406 -2.308594 272.199219 -30.679688 297.804688 -69.664062 Z M 53.285156 -160.78125 C 56.515625 -160.78125 59.976562 -160.78125 63.667969 -160.550781 C 126.640625 -155.707031 209.457031 -126.410156 282.8125 -98.269531 C 286.5 -96.882812 289.5 -93.65625 290.652344 -89.964844 C 292.039062 -86.042969 291.34375 -81.890625 289.269531 -78.429688 C 262.28125 -36.214844 235.523438 -14.53125 210.148438 -14.53125 C 151.09375 -14.53125 55.132812 -80.507812 29.066406 -128.257812 C 25.144531 -135.636719 21.222656 -145.789062 25.375 -152.246094 C 28.835938 -157.785156 38.753906 -160.78125 53.285156 -160.78125 Z M 377.386719 -249.363281 C 379.003906 -254.207031 382.003906 -253.285156 382.003906 -247.976562 C 382.003906 -240.597656 382.003906 -232.753906 382.234375 -224.910156 C 382.464844 -168.164062 383.386719 -122.949219 385.460938 -88.582031 C 385.921875 -84.660156 384.078125 -81.199219 381.078125 -78.890625 C 378.082031 -76.585938 374.160156 -76.125 370.699219 -77.507812 C 356.167969 -83.042969 340.480469 -89.042969 324.332031 -95.269531 L 315.335938 -98.730469 C 340.480469 -146.941406 361.242188 -197.460938 377.386719 -249.363281 Z M 377.386719 -249.363281 "/></g></g></g><g fill="#000000" fill-opacity="1"><g transform="translate(546.147522, 512.668501)"><g><path d="M 22.605469 -2.539062 L 24.683594 -5.765625 C 26.527344 -8.535156 25.835938 -12.226562 23.066406 -14.070312 C 20.070312 -15.917969 16.378906 -15.226562 14.53125 -12.457031 L 12.457031 -9.226562 C 11.304688 -7.382812 11.074219 -5.074219 12.226562 -3 C 13.148438 -1.152344 15.226562 0 17.53125 0 C 19.375 0.230469 21.453125 -0.921875 22.605469 -2.539062 Z M 22.605469 -2.539062 "/></g></g></g><g fill="#000000" fill-opacity="1"><g transform="translate(583.517196, 512.668501)"><g/></g></g><g fill="#000000" fill-opacity="1"><g transform="translate(669.329066, 512.668501)"><g><path d="M 167.242188 -32.292969 C 180.621094 -73.125 144.171875 -109.800781 109.109375 -145.558594 C 75.664062 -179.46875 43.828125 -211.761719 59.285156 -242.671875 C 70.816406 -266.203125 105.882812 -263.664062 125.71875 -259.972656 C 179.003906 -249.824219 237.597656 -211.992188 239.90625 -186.386719 C 240.597656 -177.160156 233.445312 -169.546875 218.222656 -163.78125 C 197 -158.015625 174.855469 -156.859375 153.167969 -159.859375 C 149.941406 -160.320312 146.941406 -158.015625 146.480469 -154.785156 C 146.019531 -151.554688 148.324219 -148.554688 151.554688 -147.863281 C 175.316406 -144.402344 199.304688 -146.019531 222.605469 -152.476562 C 248.441406 -162.167969 252.824219 -176.929688 251.898438 -187.308594 C 248.902344 -222.375 182.695312 -261.359375 128.027344 -271.738281 C 87.886719 -279.351562 59.746094 -270.816406 48.441406 -247.976562 C 29.066406 -209.457031 65.511719 -172.546875 100.574219 -137.023438 C 133.101562 -104.035156 166.78125 -69.894531 155.9375 -35.984375 C 149.019531 -14.53125 112.800781 -6.921875 82.351562 -8.996094 C 50.980469 -11.074219 26.296875 -22.375 23.761719 -35.753906 C 22.375 -42.90625 26.066406 -62.28125 87.65625 -90.425781 C 89.503906 -91.347656 90.886719 -93.195312 91.117188 -95.5 C 91.347656 -97.578125 90.425781 -99.882812 88.582031 -101.035156 C 86.734375 -102.191406 84.429688 -102.421875 82.582031 -101.5 C 31.601562 -78.199219 7.84375 -55.363281 11.765625 -33.679688 C 16.148438 -9.6875 52.132812 1.152344 81.660156 3 C 85.121094 3.230469 88.582031 3.460938 92.039062 3.460938 C 123.414062 3.460938 158.707031 -5.765625 167.242188 -32.292969 Z M 167.242188 -32.292969 "/></g></g></g><g fill="#000000" fill-opacity="1"><g transform="translate(865.86595, 512.668501)"><g><path d="M 168.164062 -65.511719 C 167.011719 -66.664062 165.625 -67.128906 164.011719 -67.128906 C 162.398438 -67.128906 160.78125 -66.664062 159.628906 -65.511719 C 131.949219 -37.832031 92.730469 -25.144531 54.210938 -31.601562 C 51.210938 -32.292969 49.132812 -35.0625 49.59375 -38.0625 C 51.441406 -49.132812 50.519531 -60.4375 44.058594 -64.128906 C 39.90625 -66.433594 33.679688 -66.664062 26.296875 -54.210938 C 23.527344 -50.058594 22.605469 -44.980469 23.527344 -40.136719 C 24.683594 -35.292969 27.679688 -30.910156 31.832031 -28.375 C 34.371094 -26.296875 31.371094 -22.835938 29.757812 -21.222656 C 25.375 -15.917969 17.761719 -14.992188 12.457031 -19.144531 C 5.765625 -22.144531 2.769531 -29.527344 5.304688 -36.214844 C 8.304688 -48.441406 20.300781 -59.054688 24.683594 -59.054688 C 27.910156 -59.054688 30.679688 -61.820312 30.679688 -65.050781 C 30.910156 -68.28125 28.144531 -71.046875 24.914062 -71.28125 L 24.683594 -71.28125 C 13.148438 -71.28125 -2.308594 -55.59375 -6.457031 -39.214844 C -10.378906 -27.21875 -4.84375 -14.070312 6.691406 -8.535156 C 11.074219 -5.996094 15.917969 -4.84375 20.992188 -4.613281 C 30.910156 -5.074219 39.675781 -11.074219 43.828125 -20.300781 C 44.289062 -20.992188 45.445312 -21.453125 46.367188 -21.222656 C 75.664062 -12.457031 129.179688 -17.992188 168.164062 -56.746094 C 169.316406 -57.898438 170.007812 -59.515625 170.007812 -61.128906 C 170.007812 -62.746094 169.316406 -64.359375 168.164062 -65.511719 Z M 37.601562 -39.214844 C 35.0625 -41.523438 34.601562 -45.210938 36.675781 -47.980469 C 37.371094 -49.132812 37.832031 -49.828125 38.292969 -50.519531 C 38.523438 -46.828125 38.292969 -42.90625 37.601562 -39.214844 Z M 37.601562 -39.214844 "/></g></g></g><g fill="#000000" fill-opacity="1"><g transform="translate(1025.263833, 512.668501)"><g><path d="M 192.847656 -55.824219 C 190.539062 -58.363281 186.617188 -58.59375 184.082031 -56.285156 C 183.386719 -55.59375 114.878906 5.996094 72.433594 -21.914062 C 55.59375 -32.988281 51.441406 -59.746094 51.441406 -59.976562 C 51.210938 -62.746094 49.132812 -64.820312 46.367188 -65.28125 C 43.828125 -65.511719 41.0625 -64.128906 39.90625 -61.820312 C 29.066406 -37.832031 9.917969 -7.382812 4.613281 -10.84375 C 4.152344 -10.84375 3.230469 -11.765625 2.539062 -13.378906 C -0.230469 -20.992188 0.691406 -29.296875 4.613281 -36.445312 C 13.378906 -54.441406 29.527344 -67.359375 48.902344 -72.203125 C 50.980469 -72.664062 52.59375 -74.277344 53.285156 -76.355469 C 53.980469 -78.429688 53.285156 -80.738281 51.902344 -82.351562 C 50.289062 -83.734375 48.210938 -84.429688 46.136719 -83.964844 C 23.066406 -78.429688 3.921875 -62.746094 -6.457031 -41.523438 C -11.996094 -31.140625 -12.6875 -18.683594 -8.304688 -7.84375 C -6.226562 -2.539062 -1.152344 1.152344 4.613281 1.152344 L 4.84375 1.152344 C 16.148438 0.921875 30.21875 -13.148438 39.90625 -28.375 C 41.0625 -30.21875 43.136719 -31.140625 45.210938 -30.910156 C 47.289062 -30.910156 49.132812 -29.757812 50.058594 -27.910156 C 53.980469 -21.453125 59.285156 -15.917969 65.742188 -11.996094 C 116.03125 21.453125 189.15625 -44.519531 192.386719 -47.289062 C 193.539062 -48.441406 194.230469 -50.058594 194.230469 -51.441406 C 194.460938 -53.054688 193.769531 -54.671875 192.847656 -55.824219 Z M 192.847656 -55.824219 "/></g></g></g><g fill="#000000" fill-opacity="1"><g transform="translate(1211.650907, 512.668501)"><g><path d="M 198.84375 -60.667969 C 197.691406 -61.820312 196.304688 -62.511719 194.691406 -62.511719 C 193.078125 -62.511719 191.460938 -61.820312 190.308594 -60.667969 C 150.402344 -21.683594 79.582031 -13.378906 64.359375 -22.375 C 53.980469 -28.375 55.132812 -35.523438 62.511719 -49.828125 C 65.972656 -56.746094 69.894531 -64.820312 63.207031 -69.664062 C 56.976562 -74.277344 50.980469 -71.28125 45.675781 -68.511719 C 38.0625 -64.128906 29.527344 -61.820312 20.53125 -61.820312 C 18.453125 -61.820312 16.609375 -65.511719 17.070312 -66.894531 C 29.988281 -95.269531 24.222656 -100.574219 22.144531 -102.652344 C 18.683594 -106.113281 13.378906 -105.882812 6.921875 -101.960938 C -3.691406 -94.347656 -8.304688 -80.738281 -4.613281 -68.050781 C -3.691406 -64.589844 -2.074219 -61.359375 0.230469 -58.59375 C 0 -56.054688 1.152344 -53.746094 3.460938 -52.59375 C 4.84375 -51.902344 6.457031 -51.902344 8.074219 -52.363281 C 11.996094 -50.519531 16.378906 -49.59375 20.761719 -49.59375 C 30.21875 -49.363281 39.445312 -51.441406 47.75 -56.054688 C 50.980469 -57.667969 52.132812 -56.285156 51.671875 -55.363281 C 46.136719 -44.519531 36.214844 -24.683594 58.363281 -11.765625 C 66.203125 -8.074219 74.96875 -6.457031 83.734375 -7.152344 C 116.03125 -7.152344 166.78125 -20.992188 198.613281 -52.132812 C 199.765625 -53.054688 200.457031 -54.671875 200.457031 -56.285156 C 200.6875 -57.898438 199.996094 -59.515625 198.84375 -60.667969 Z M 6.691406 -73.355469 C 5.304688 -80.046875 7.613281 -86.964844 12.917969 -91.347656 C 11.304688 -85.121094 9.226562 -79.121094 6.691406 -73.125 Z M 6.691406 -73.355469 "/></g></g></g><g fill="#000000" fill-opacity="1"><g transform="translate(1400.806081, 512.668501)"><g><path d="M 193.539062 -59.285156 C 192.386719 -60.4375 191 -61.359375 189.386719 -61.359375 C 187.773438 -61.589844 186.15625 -61.128906 185.003906 -60.207031 C 184.082031 -59.515625 95.269531 11.074219 21.222656 -19.375 C 6.226562 -25.605469 5.535156 -33.679688 5.996094 -38.0625 C 5.996094 -38.753906 6.226562 -39.445312 6.921875 -39.90625 C 7.382812 -40.367188 8.304688 -40.367188 8.996094 -40.136719 C 23.992188 -39.214844 38.984375 -43.136719 51.902344 -51.210938 C 62.976562 -58.363281 64.820312 -66.203125 64.128906 -71.28125 C 63.667969 -79.582031 56.976562 -86.273438 48.441406 -86.503906 C 30.21875 -87.425781 -0.230469 -65.742188 -5.304688 -42.675781 C -7.382812 -34.140625 -7.152344 -17.992188 16.609375 -8.304688 C 31.140625 -2.308594 46.367188 0.460938 61.820312 0.460938 C 128.027344 0.460938 189.386719 -48.210938 192.617188 -50.75 C 193.769531 -51.671875 194.691406 -53.285156 194.691406 -54.671875 C 194.921875 -56.285156 194.460938 -57.898438 193.539062 -59.285156 Z M 14.300781 -54.210938 C 23.296875 -66.664062 38.292969 -74.96875 47.75 -74.277344 C 50.289062 -74.277344 51.671875 -73.355469 52.132812 -69.894531 C 52.363281 -67.589844 49.828125 -64.359375 45.210938 -61.359375 C 35.753906 -55.132812 7.382812 -44.980469 14.300781 -54.210938 Z M 14.300781 -54.210938 "/></g></g></g><g fill="#000000" fill-opacity="1"><g transform="translate(1585.578442, 512.668501)"><g><path d="M 158.246094 -63.898438 C 157.089844 -65.050781 155.707031 -65.511719 154.09375 -65.511719 C 152.476562 -65.511719 150.863281 -65.050781 149.710938 -63.898438 C 127.566406 -42.90625 100.34375 -28.144531 70.585938 -20.992188 C 69.433594 -20.53125 68.050781 -20.992188 67.359375 -21.914062 C 66.664062 -23.066406 66.433594 -24.222656 67.128906 -25.375 C 71.28125 -33.449219 70.355469 -43.136719 65.050781 -50.519531 C 61.820312 -54.902344 57.667969 -58.59375 52.824219 -61.359375 C 46.367188 -65.742188 39.214844 -70.816406 38.984375 -76.125 C 39.214844 -79.121094 40.367188 -81.890625 42.445312 -84.199219 L 54.902344 -95.960938 C 57.207031 -98.269531 57.4375 -101.960938 55.363281 -104.265625 C 53.285156 -106.804688 49.828125 -107.265625 47.058594 -105.1875 C 42.214844 -101.5 37.601562 -97.347656 33.679688 -92.5 L -1.84375 -59.285156 C -3.460938 -57.898438 -4.152344 -55.59375 -3.691406 -53.515625 C -3.230469 -51.210938 -1.613281 -49.59375 0.460938 -48.902344 C 2.539062 -48.441406 4.84375 -48.902344 6.457031 -50.519531 L 23.992188 -66.894531 C 24.914062 -67.820312 26.066406 -68.050781 27.21875 -68.050781 C 28.375 -67.820312 29.296875 -67.128906 29.757812 -66.203125 C 34.140625 -60.207031 39.675781 -55.132812 45.90625 -51.441406 C 49.363281 -49.363281 52.363281 -47.058594 54.902344 -44.058594 C 57.207031 -41.523438 58.363281 -38.0625 57.667969 -34.601562 C 56.976562 -31.140625 54.902344 -28.144531 51.902344 -26.527344 C 37.140625 -18.222656 18.453125 -22.144531 8.304688 -35.753906 C 6.691406 -38.292969 3 -39.214844 0.230469 -37.371094 C -2.539062 -35.753906 -3.460938 -32.292969 -1.84375 -29.296875 C 5.765625 -16.148438 19.375 -7.613281 34.601562 -6.457031 C 38.523438 -5.765625 42.214844 -5.535156 46.136719 -5.535156 C 85.121094 -5.535156 133.101562 -29.988281 158.246094 -55.363281 C 160.550781 -57.667969 160.550781 -61.589844 158.246094 -63.898438 Z M 158.246094 -63.898438 "/></g></g></g></svg>