<svg xmlns="http://www.w3.org/2000/svg" xmlns:xlink="http://www.w3.org/1999/xlink" width="872" zoomAndPan="magnify" viewBox="0 0 654 653.999997" height="872" preserveAspectRatio="xMidYMid meet" version="1.0"><path fill="#2806a7" d="M 64.410156 255.304688 C 64.464844 255.894531 64.53125 256.488281 64.585938 257.089844 C 64.703125 258.304688 64.824219 259.539062 64.953125 260.800781 C 65.503906 265.855469 66.179688 271.335938 67.054688 277.113281 C 67.9375 282.890625 69.011719 288.976562 70.296875 295.253906 C 71.578125 301.53125 73.070312 307.996094 74.78125 314.53125 C 76.5 321.066406 78.429688 327.679688 80.546875 334.242188 C 82.664062 340.808594 84.992188 347.316406 87.453125 353.683594 C 88.066406 355.273438 88.703125 356.851562 89.324219 358.421875 C 89.644531 359.21875 89.972656 359.988281 90.289062 360.773438 C 90.609375 361.550781 90.933594 362.324219 91.253906 363.101562 C 91.585938 363.871094 91.910156 364.636719 92.238281 365.40625 C 92.398438 365.785156 92.566406 366.171875 92.726562 366.550781 C 92.898438 366.9375 93.058594 367.316406 93.226562 367.695312 C 93.5625 368.453125 93.890625 369.210938 94.222656 369.960938 C 94.558594 370.707031 94.894531 371.460938 95.230469 372.203125 C 97.925781 378.15625 100.714844 383.84375 103.492188 389.1875 C 104.882812 391.859375 106.269531 394.457031 107.652344 396.9375 C 109.027344 399.425781 110.394531 401.820312 111.734375 404.105469 C 113.074219 406.382812 114.394531 408.5625 115.671875 410.625 C 116.957031 412.6875 118.191406 414.636719 119.390625 416.453125 C 120.582031 418.277344 121.71875 419.972656 122.796875 421.535156 C 123.878906 423.101562 124.886719 424.539062 125.828125 425.828125 C 127.691406 428.417969 129.257812 430.449219 130.386719 431.867188 C 130.945312 432.582031 131.410156 433.144531 131.738281 433.542969 C 131.832031 433.640625 131.910156 433.730469 131.972656 433.808594 C 131.992188 433.832031 132.007812 433.851562 132.019531 433.867188 C 132.039062 433.894531 132.0625 433.914062 132.074219 433.933594 C 132.121094 433.980469 132.152344 434.019531 132.183594 434.054688 C 132.214844 434.089844 132.246094 434.117188 132.265625 434.144531 C 132.292969 434.171875 132.292969 434.171875 132.308594 434.191406 C 132.320312 434.207031 132.328125 434.222656 132.328125 434.222656 C 132.980469 434.996094 133.773438 435.816406 134.574219 436.496094 C 136.683594 438.285156 139.074219 439.527344 141.578125 440.226562 C 144.058594 441.003906 146.738281 441.265625 149.488281 440.90625 C 150.527344 440.773438 151.632812 440.519531 152.609375 440.226562 C 152.609375 440.226562 152.625 440.226562 152.644531 440.21875 C 152.664062 440.214844 152.664062 440.214844 152.707031 440.199219 C 152.734375 440.191406 152.777344 440.175781 152.820312 440.167969 C 152.871094 440.15625 152.917969 440.140625 152.972656 440.128906 C 153 440.121094 153.03125 440.105469 153.058594 440.101562 C 153.085938 440.09375 153.109375 440.085938 153.128906 440.078125 C 153.226562 440.050781 153.347656 440.015625 153.472656 439.980469 C 153.960938 439.828125 154.664062 439.601562 155.519531 439.316406 C 157.238281 438.738281 159.65625 437.886719 162.628906 436.734375 C 164.121094 436.160156 165.75 435.507812 167.503906 434.777344 C 169.265625 434.054688 171.144531 433.253906 173.136719 432.378906 C 175.136719 431.503906 177.230469 430.539062 179.433594 429.511719 C 181.621094 428.480469 183.914062 427.371094 186.285156 426.1875 C 188.652344 425 191.101562 423.746094 193.613281 422.398438 C 196.125 421.066406 198.695312 419.652344 201.320312 418.171875 C 206.558594 415.199219 212 411.953125 217.5 408.421875 C 218.183594 407.984375 218.871094 407.542969 219.566406 407.09375 C 220.253906 406.644531 220.945312 406.1875 221.636719 405.730469 C 221.984375 405.507812 222.328125 405.277344 222.679688 405.050781 C 223.023438 404.820312 223.367188 404.589844 223.710938 404.355469 C 224.402344 403.886719 225.101562 403.425781 225.792969 402.953125 C 226.488281 402.476562 227.183594 402.007812 227.875 401.53125 C 228.5625 401.046875 229.265625 400.578125 229.953125 400.085938 C 231.332031 399.105469 232.730469 398.136719 234.109375 397.125 C 239.644531 393.128906 245.140625 388.9375 250.492188 384.589844 C 255.847656 380.234375 261.058594 375.746094 266.0625 371.195312 C 271.050781 366.644531 275.835938 362.042969 280.332031 357.476562 C 284.824219 352.910156 289.03125 348.386719 292.925781 344.027344 C 296.804688 339.648438 300.359375 335.429688 303.570312 331.488281 C 304.363281 330.5 305.140625 329.527344 305.898438 328.578125 C 306.277344 328.101562 306.65625 327.636719 307.023438 327.167969 C 307.386719 326.699219 307.742188 326.234375 308.09375 325.78125 C 308.800781 324.867188 309.496094 323.980469 310.160156 323.109375 C 310.324219 322.898438 310.484375 322.6875 310.640625 322.476562 C 311.207031 321.71875 311.136719 320.667969 310.484375 319.996094 C 309.757812 319.238281 308.554688 319.210938 307.792969 319.925781 C 307.601562 320.101562 307.417969 320.273438 307.230469 320.449219 C 306.433594 321.179688 305.613281 321.929688 304.769531 322.695312 C 304.347656 323.078125 303.921875 323.472656 303.484375 323.867188 C 303.054688 324.257812 302.605469 324.644531 302.160156 325.042969 C 301.265625 325.835938 300.34375 326.648438 299.402344 327.476562 C 295.625 330.757812 291.480469 334.238281 287.019531 337.796875 C 282.546875 341.347656 277.757812 344.972656 272.707031 348.585938 C 267.667969 352.191406 262.371094 355.773438 256.902344 359.25 C 251.429688 362.722656 245.792969 366.09375 240.078125 369.292969 C 234.363281 372.492188 228.558594 375.507812 222.789062 378.3125 C 221.355469 379.027344 219.910156 379.695312 218.472656 380.382812 C 217.765625 380.722656 217.035156 381.046875 216.320312 381.375 C 215.601562 381.707031 214.886719 382.035156 214.179688 382.359375 C 213.457031 382.679688 212.75 382.996094 212.035156 383.3125 C 211.683594 383.472656 211.328125 383.628906 210.976562 383.789062 C 210.617188 383.941406 210.261719 384.097656 209.910156 384.25 C 209.199219 384.554688 208.496094 384.863281 207.792969 385.164062 C 207.082031 385.464844 206.382812 385.757812 205.679688 386.054688 C 200.085938 388.410156 194.613281 390.503906 189.402344 392.367188 C 186.800781 393.292969 184.265625 394.167969 181.796875 394.96875 C 179.335938 395.777344 176.941406 396.515625 174.648438 397.210938 C 172.511719 397.855469 170.449219 398.4375 168.476562 398.984375 L 200.148438 252.355469 C 200.457031 250.921875 199.617188 249.488281 198.207031 249.074219 C 196.792969 248.660156 195.308594 249.398438 194.789062 250.765625 L 141.488281 390.980469 C 140.132812 389.453125 138.71875 387.84375 137.273438 386.136719 C 135.730469 384.304688 134.125 382.386719 132.503906 380.367188 C 130.875 378.355469 129.222656 376.238281 127.539062 374.039062 C 124.1875 369.636719 120.742188 364.902344 117.328125 359.882812 C 116.898438 359.25 116.472656 358.621094 116.046875 357.988281 C 115.617188 357.351562 115.191406 356.707031 114.769531 356.066406 C 114.550781 355.742188 114.339844 355.421875 114.125 355.101562 C 113.914062 354.769531 113.703125 354.449219 113.492188 354.121094 C 113.066406 353.464844 112.644531 352.8125 112.214844 352.15625 C 111.796875 351.496094 111.375 350.828125 110.957031 350.164062 C 110.535156 349.496094 110.105469 348.828125 109.691406 348.148438 C 108.855469 346.796875 108.007812 345.445312 107.195312 344.070312 C 103.886719 338.570312 100.667969 332.882812 97.609375 327.089844 C 94.558594 321.292969 91.671875 315.402344 88.976562 309.503906 C 86.28125 303.605469 83.785156 297.714844 81.523438 291.945312 C 79.257812 286.171875 77.214844 280.519531 75.398438 275.105469 C 73.589844 269.695312 72.011719 264.515625 70.632812 259.707031 C 70.296875 258.5 69.964844 257.324219 69.648438 256.164062 C 69.488281 255.589844 69.324219 255.023438 69.179688 254.453125 C 69.023438 253.886719 68.886719 253.324219 68.738281 252.777344 C 68.570312 252.117188 68.207031 250.703125 67.910156 249.546875 C 67.65625 248.570312 66.726562 247.941406 65.730469 248.066406 C 64.675781 248.199219 63.921875 249.132812 64 250.191406 C 64.097656 251.410156 64.210938 252.875 64.265625 253.550781 C 64.3125 254.125 64.363281 254.707031 64.410156 255.304688 Z M 201.277344 283.675781 L 178.773438 387.84375 C 178.992188 387.773438 179.199219 387.699219 179.410156 387.632812 C 181.640625 386.910156 184.066406 386.074219 186.808594 385.105469 C 192.28125 383.152344 197.625 381.074219 202.691406 378.941406 L 204.761719 378.070312 L 207.75 376.78125 L 211.003906 375.332031 L 213.835938 374.027344 C 214.273438 373.832031 214.699219 373.632812 215.160156 373.417969 L 216.410156 372.820312 C 217.441406 372.335938 218.40625 371.871094 219.378906 371.394531 L 219.417969 371.375 C 225.238281 368.542969 230.917969 365.578125 236.3125 362.5625 C 241.867188 359.457031 247.40625 356.144531 252.765625 352.742188 C 257.976562 349.425781 263.175781 345.914062 268.226562 342.308594 C 272.390625 339.328125 276.5625 336.191406 280.660156 332.984375 C 258.351562 327.132812 218.78125 313.023438 201.277344 283.675781 Z M 83.351562 274.53125 C 85.042969 279.453125 86.832031 284.355469 88.703125 289.132812 C 90.96875 294.894531 93.421875 300.675781 95.988281 306.300781 C 98.625 312.078125 101.472656 317.871094 104.4375 323.492188 C 107.316406 328.957031 110.460938 334.539062 113.800781 340.09375 L 113.828125 340.136719 C 114.375 341.066406 114.945312 341.988281 115.546875 342.953125 L 116.277344 344.144531 C 116.523438 344.546875 116.78125 344.945312 117.027344 345.34375 L 118.710938 347.988281 L 120.566406 350.863281 L 122.445312 353.683594 L 123.710938 355.539062 C 126.796875 360.09375 130.148438 364.742188 133.660156 369.351562 C 135.433594 371.664062 137.019531 373.683594 138.519531 375.539062 C 138.65625 375.703125 138.785156 375.871094 138.921875 376.035156 L 176.78125 276.425781 C 146.121094 291.496094 105.246094 281.777344 83.351562 274.53125 Z M 327.195312 246.355469 C 327.71875 247.460938 328.355469 248.785156 328.644531 249.390625 C 328.898438 249.910156 329.152344 250.441406 329.414062 250.976562 C 329.671875 251.511719 329.945312 252.042969 330.214844 252.589844 C 330.761719 253.667969 331.320312 254.785156 331.890625 255.921875 C 334.214844 260.433594 336.816406 265.300781 339.703125 270.386719 C 342.601562 275.464844 345.785156 280.765625 349.238281 286.160156 C 352.6875 291.558594 356.402344 297.054688 360.347656 302.539062 C 364.292969 308.03125 368.464844 313.507812 372.796875 318.871094 C 377.128906 324.234375 381.636719 329.480469 386.222656 334.539062 C 387.359375 335.808594 388.523438 337.046875 389.671875 338.292969 C 390.246094 338.914062 390.832031 339.523438 391.410156 340.136719 C 391.992188 340.746094 392.566406 341.355469 393.144531 341.964844 C 393.730469 342.566406 394.308594 343.164062 394.890625 343.765625 C 395.179688 344.058594 395.472656 344.363281 395.761719 344.664062 C 396.050781 344.957031 396.347656 345.253906 396.636719 345.546875 C 397.21875 346.136719 397.800781 346.71875 398.378906 347.300781 C 398.964844 347.882812 399.546875 348.460938 400.128906 349.035156 C 404.773438 353.625 409.421875 357.933594 413.933594 361.929688 C 416.1875 363.921875 418.410156 365.84375 420.589844 367.664062 C 422.765625 369.496094 424.90625 371.234375 426.972656 372.890625 C 429.046875 374.539062 431.0625 376.097656 432.992188 377.5625 C 434.933594 379.027344 436.785156 380.398438 438.554688 381.671875 C 440.324219 382.941406 441.992188 384.117188 443.5625 385.191406 C 445.128906 386.265625 446.585938 387.238281 447.925781 388.113281 C 450.601562 389.863281 452.785156 391.191406 454.347656 392.117188 C 455.125 392.578125 455.761719 392.933594 456.214844 393.183594 C 456.332031 393.257812 456.433594 393.3125 456.527344 393.359375 C 456.546875 393.375 456.570312 393.382812 456.589844 393.394531 C 456.617188 393.410156 456.644531 393.421875 456.667969 393.4375 C 456.71875 393.457031 456.769531 393.484375 456.808594 393.507812 C 456.847656 393.53125 456.886719 393.550781 456.917969 393.566406 C 456.957031 393.585938 456.957031 393.585938 456.972656 393.59375 C 456.996094 393.605469 457.007812 393.613281 457.007812 393.613281 C 457.894531 394.105469 458.929688 394.582031 459.917969 394.925781 C 462.53125 395.84375 465.210938 396.144531 467.796875 395.898438 C 470.390625 395.730469 472.988281 395.015625 475.421875 393.695312 C 476.34375 393.199219 477.289062 392.566406 478.089844 391.945312 C 478.089844 391.945312 478.101562 391.9375 478.121094 391.917969 C 478.136719 391.90625 478.136719 391.902344 478.167969 391.878906 C 478.195312 391.859375 478.230469 391.839844 478.269531 391.8125 C 478.304688 391.78125 478.347656 391.746094 478.398438 391.714844 C 478.417969 391.699219 478.441406 391.679688 478.464844 391.664062 C 478.488281 391.652344 478.507812 391.636719 478.523438 391.613281 C 478.605469 391.550781 478.699219 391.480469 478.808594 391.394531 C 479.210938 391.082031 479.785156 390.625 480.480469 390.042969 C 481.882812 388.894531 483.824219 387.222656 486.191406 385.085938 C 487.375 384.011719 488.664062 382.820312 490.042969 381.507812 C 491.425781 380.207031 492.890625 378.78125 494.433594 377.246094 C 495.984375 375.714844 497.597656 374.0625 499.28125 372.316406 C 500.957031 370.5625 502.703125 368.710938 504.484375 366.753906 C 506.273438 364.792969 508.105469 362.742188 509.96875 360.589844 C 511.835938 358.445312 513.726562 356.199219 515.644531 353.878906 C 519.46875 349.222656 523.378906 344.234375 527.246094 338.972656 C 527.730469 338.3125 528.214844 337.652344 528.699219 336.984375 C 529.179688 336.320312 529.664062 335.644531 530.144531 334.972656 C 530.386719 334.636719 530.628906 334.300781 530.871094 333.964844 C 531.109375 333.625 531.351562 333.285156 531.589844 332.945312 C 532.066406 332.257812 532.546875 331.582031 533.03125 330.890625 C 533.503906 330.195312 533.976562 329.503906 534.457031 328.808594 C 534.929688 328.113281 535.414062 327.425781 535.882812 326.71875 C 536.816406 325.308594 537.773438 323.898438 538.695312 322.46875 C 542.429688 316.753906 546.054688 310.863281 549.488281 304.882812 C 552.925781 298.898438 556.183594 292.835938 559.214844 286.796875 C 562.246094 280.757812 565.054688 274.742188 567.609375 268.871094 C 570.167969 262.996094 572.476562 257.265625 574.542969 251.796875 C 576.59375 246.320312 578.394531 241.109375 579.980469 236.277344 C 580.367188 235.070312 580.742188 233.878906 581.109375 232.722656 C 581.292969 232.144531 581.480469 231.574219 581.652344 231.003906 C 581.820312 230.4375 581.992188 229.875 582.160156 229.320312 C 582.492188 228.21875 582.8125 227.140625 583.128906 226.089844 C 583.203125 225.835938 583.273438 225.578125 583.347656 225.332031 C 583.605469 224.417969 583.164062 223.464844 582.308594 223.066406 C 581.355469 222.625 580.226562 223.023438 579.769531 223.96875 C 579.660156 224.195312 579.550781 224.425781 579.4375 224.65625 C 578.953125 225.625 578.457031 226.621094 577.941406 227.636719 C 577.6875 228.148438 577.429688 228.667969 577.167969 229.1875 C 576.902344 229.714844 576.625 230.238281 576.347656 230.765625 C 575.796875 231.832031 575.234375 232.917969 574.65625 234.027344 C 572.304688 238.441406 569.683594 243.175781 566.796875 248.097656 C 563.894531 253.023438 560.722656 258.128906 557.3125 263.304688 C 553.894531 268.480469 550.238281 273.726562 546.382812 278.9375 C 542.523438 284.136719 538.46875 289.308594 534.28125 294.351562 C 530.09375 299.386719 525.757812 304.28125 521.382812 308.964844 C 520.300781 310.148438 519.1875 311.292969 518.09375 312.441406 C 517.550781 313.023438 516.992188 313.585938 516.441406 314.148438 C 515.890625 314.714844 515.339844 315.277344 514.792969 315.835938 C 514.242188 316.390625 513.691406 316.945312 513.140625 317.492188 C 512.867188 317.769531 512.589844 318.046875 512.316406 318.320312 C 512.039062 318.59375 511.765625 318.859375 511.488281 319.132812 C 510.9375 319.671875 510.390625 320.210938 509.839844 320.742188 C 509.289062 321.277344 508.738281 321.804688 508.191406 322.328125 C 503.808594 326.535156 499.457031 330.457031 495.261719 334.0625 C 493.160156 335.863281 491.105469 337.589844 489.09375 339.222656 C 487.085938 340.863281 485.121094 342.414062 483.230469 343.878906 C 481.460938 345.246094 479.746094 346.535156 478.101562 347.75 L 455.054688 199.523438 C 454.828125 198.070312 453.523438 197.042969 452.0625 197.160156 C 450.601562 197.273438 449.476562 198.5 449.476562 199.96875 L 450.039062 349.976562 C 448.226562 349.027344 446.332031 348.03125 444.367188 346.957031 C 442.269531 345.800781 440.085938 344.585938 437.84375 343.28125 C 435.601562 341.988281 433.296875 340.601562 430.941406 339.152344 C 426.230469 336.257812 421.316406 333.066406 416.328125 329.601562 C 415.703125 329.175781 415.078125 328.730469 414.449219 328.296875 C 413.824219 327.855469 413.199219 327.40625 412.566406 326.964844 C 412.253906 326.738281 411.9375 326.515625 411.621094 326.289062 C 411.308594 326.058594 410.992188 325.835938 410.679688 325.605469 C 410.050781 325.148438 409.417969 324.683594 408.785156 324.230469 C 408.15625 323.757812 407.523438 323.289062 406.890625 322.820312 C 406.257812 322.351562 405.617188 321.878906 404.992188 321.398438 C 403.730469 320.4375 402.453125 319.476562 401.195312 318.480469 C 396.136719 314.539062 391.089844 310.386719 386.160156 306.074219 C 381.234375 301.761719 376.414062 297.292969 371.785156 292.757812 C 367.160156 288.21875 362.71875 283.621094 358.535156 279.039062 C 354.347656 274.46875 350.414062 269.921875 346.773438 265.519531 C 343.144531 261.117188 339.816406 256.851562 336.796875 252.855469 C 336.050781 251.851562 335.320312 250.871094 334.609375 249.910156 C 334.253906 249.425781 333.898438 248.949219 333.554688 248.480469 C 333.210938 248.003906 332.878906 247.53125 332.542969 247.070312 C 332.148438 246.515625 331.304688 245.324219 330.609375 244.347656 C 330.027344 243.527344 328.925781 243.277344 328.042969 243.753906 C 327.113281 244.257812 326.738281 245.402344 327.195312 246.355469 Z M 467.34375 228.351562 L 483.71875 333.652344 C 483.890625 333.515625 484.0625 333.375 484.234375 333.234375 C 486.058594 331.753906 488.023438 330.105469 490.234375 328.21875 C 494.636719 324.425781 498.882812 320.578125 502.847656 316.769531 L 504.46875 315.210938 L 506.792969 312.933594 L 509.308594 310.417969 L 511.488281 308.1875 C 511.820312 307.839844 512.152344 307.503906 512.5 307.132812 L 513.460938 306.128906 C 514.242188 305.308594 514.984375 304.53125 515.714844 303.738281 L 515.746094 303.703125 C 520.164062 298.972656 524.402344 294.160156 528.347656 289.417969 C 532.425781 284.519531 536.402344 279.449219 540.183594 274.34375 C 543.859375 269.375 547.457031 264.238281 550.871094 259.0625 C 553.691406 254.785156 556.464844 250.351562 559.136719 245.882812 C 536.214844 248.4375 494.210938 249.460938 467.34375 228.351562 Z M 441.878906 230.375 C 418.667969 255.445312 377.027344 261.039062 353.992188 262.125 C 357.332031 266.125 360.765625 270.058594 364.222656 273.839844 C 368.410156 278.410156 372.769531 282.917969 377.183594 287.246094 C 381.722656 291.699219 386.453125 296.082031 391.238281 300.265625 C 395.886719 304.335938 400.828125 308.417969 405.9375 312.398438 L 405.972656 312.425781 C 406.824219 313.101562 407.683594 313.753906 408.59375 314.449219 L 409.703125 315.292969 C 410.078125 315.582031 410.457031 315.863281 410.835938 316.144531 L 413.347656 318.007812 L 416.121094 320.027344 L 418.882812 321.988281 L 420.726562 323.269531 C 425.242188 326.402344 430.042969 329.539062 434.976562 332.582031 C 437.460938 334.109375 439.660156 335.421875 441.726562 336.613281 C 441.910156 336.726562 442.09375 336.832031 442.277344 336.9375 Z M 327 -0.015625 C 507.605469 -0.015625 654.015625 146.398438 654.015625 327 C 654.015625 507.601562 507.605469 654.015625 327 654.015625 C 146.398438 654.015625 -0.015625 507.601562 -0.015625 327 C -0.015625 146.398438 146.398438 -0.015625 327 -0.015625 " fill-opacity="1" fill-rule="nonzero"/></svg>