<svg xmlns="http://www.w3.org/2000/svg" xmlns:xlink="http://www.w3.org/1999/xlink" width="2400" zoomAndPan="magnify" viewBox="0 0 1800 653.999997" height="872" preserveAspectRatio="xMidYMid meet" version="1.0"><defs><g/></defs><g fill="#ffffff" fill-opacity="1"><g transform="translate(10.744544, 590.49764)"><g><path d="M 390.382812 -417.902344 L 390.382812 -506.21875 C 390.382812 -508.78125 387.824219 -511.980469 383.34375 -511.980469 L 300.148438 -511.980469 C 172.792969 -511.980469 0 -474.863281 0 -255.988281 C 0 -28.800781 174.714844 0 300.148438 0 L 383.34375 0 C 387.824219 0 390.382812 -3.199219 390.382812 -5.761719 L 390.382812 -319.347656 L 193.914062 -319.347656 L 193.914062 -221.429688 L 292.46875 -221.429688 L 292.46875 -93.4375 C 181.113281 -87.675781 98.554688 -134.394531 98.554688 -255.988281 C 98.554688 -414.0625 230.390625 -420.464844 292.46875 -417.902344 Z M 390.382812 -417.902344 "/></g></g></g><g fill="#ffffff" fill-opacity="1"><g transform="translate(292.972449, 590.49764)"><g><path d="M 243.191406 -95.355469 L 97.917969 -95.355469 L 97.917969 -210.550781 L 298.867188 -210.550781 C 302.707031 -210.550781 305.90625 -213.75 305.90625 -216.3125 L 305.90625 -297.589844 C 305.90625 -300.789062 302.707031 -303.347656 298.867188 -303.347656 L 97.917969 -303.347656 L 97.917969 -419.183594 L 243.191406 -419.183594 L 243.191406 -511.980469 L 7.039062 -511.980469 C 3.199219 -511.980469 0 -508.78125 0 -506.21875 L 0 -5.761719 C 0 -3.199219 3.199219 0 7.039062 0 L 243.191406 0 Z M 243.191406 -95.355469 "/></g></g></g><g fill="#ffffff" fill-opacity="1"><g transform="translate(486.244065, 590.49764)"><g><path d="M 208.632812 -87.675781 L 157.433594 -87.675781 L 157.433594 -511.980469 L 59.519531 -511.980469 L 59.519531 -87.675781 L 7.039062 -87.675781 C 3.199219 -87.675781 0 -85.117188 0 -81.917969 L 0 -5.761719 C 0 -3.199219 3.199219 0 7.039062 0 L 208.632812 0 C 213.113281 0 215.671875 -3.199219 215.671875 -5.761719 L 215.671875 -81.917969 C 215.671875 -85.117188 213.113281 -87.675781 208.632812 -87.675781 Z M 208.632812 -87.675781 "/></g></g></g><g fill="#ffffff" fill-opacity="1"><g transform="translate(584.799481, 590.49764)"><g><path d="M 276.46875 -95.355469 L 0 -95.355469 L 0 -5.761719 C 0 -3.199219 3.199219 0 7.039062 0 L 276.46875 0 C 280.949219 0 283.507812 -3.199219 283.507812 -5.761719 L 283.507812 -88.957031 C 283.507812 -92.15625 280.949219 -95.355469 276.46875 -95.355469 Z M 97.917969 -193.273438 L 97.917969 -506.21875 C 97.917969 -508.78125 95.355469 -511.980469 91.515625 -511.980469 L 7.039062 -511.980469 C 3.199219 -511.980469 0 -508.78125 0 -506.21875 L 0 -193.273438 Z M 97.917969 -193.273438 "/></g></g></g><g fill="#ffffff" fill-opacity="1"><g transform="translate(755.031983, 590.49764)"><g><path d="M 234.871094 -284.148438 C 198.390625 -301.429688 162.554688 -301.429688 159.355469 -301.429688 C 126.714844 -301.429688 95.355469 -320.628906 95.355469 -357.746094 C 95.355469 -398.703125 124.15625 -419.824219 159.355469 -419.824219 C 192.632812 -419.824219 220.792969 -402.542969 222.070312 -366.066406 C 222.070312 -364.144531 225.269531 -360.945312 229.109375 -360.945312 L 309.109375 -360.945312 C 313.585938 -360.945312 316.789062 -364.144531 316.148438 -366.066406 C 314.867188 -453.101562 247.03125 -511.980469 159.355469 -511.980469 C 77.4375 -511.980469 0 -453.742188 0 -357.746094 C 0 -298.226562 30.078125 -252.789062 83.195312 -228.472656 C 120.316406 -211.191406 154.875 -211.191406 159.355469 -211.191406 C 188.152344 -209.910156 223.351562 -186.871094 223.351562 -149.113281 C 223.351562 -115.195312 193.273438 -92.15625 159.355469 -92.15625 C 159.355469 -92.15625 159.355469 -92.15625 158.714844 -92.15625 L 158.714844 0 C 159.355469 0 159.355469 0 159.355469 0 C 241.269531 0 318.066406 -53.117188 318.066406 -149.113281 C 318.066406 -209.273438 288.628906 -259.191406 234.871094 -284.148438 Z M 234.871094 -284.148438 "/></g></g></g><g fill="#2806a7" fill-opacity="1"><g transform="translate(961.099973, 590.49764)"><g><path d="M 294.386719 -254.710938 C 294.386719 -281.589844 273.269531 -303.347656 246.390625 -303.347656 C 219.511719 -303.347656 198.390625 -281.589844 198.390625 -254.710938 C 198.390625 -228.472656 219.511719 -206.710938 246.390625 -206.710938 C 273.269531 -206.710938 294.386719 -228.472656 294.386719 -254.710938 Z M 492.78125 -256.628906 C 492.78125 -383.984375 410.222656 -511.980469 247.03125 -511.980469 C 81.277344 -511.980469 0 -383.984375 0 -256.628906 C 0 -128.636719 81.277344 0 247.03125 0 C 410.222656 0 492.78125 -128.636719 492.78125 -256.628906 Z M 396.785156 -254.710938 C 396.785156 -172.152344 346.226562 -89.597656 247.03125 -89.597656 C 146.554688 -89.597656 96.636719 -172.152344 96.636719 -254.710938 C 96.636719 -338.546875 146.554688 -421.742188 247.03125 -421.742188 C 346.226562 -421.742188 396.785156 -338.546875 396.785156 -254.710938 Z M 396.785156 -254.710938 "/></g></g></g><g fill="#ffffff" fill-opacity="1"><g transform="translate(1350.197646, 590.49764)"><g><path d="M 423.664062 -511.980469 L 341.105469 -511.980469 C 336.625 -511.980469 333.425781 -508.78125 333.425781 -506.21875 L 333.425781 -172.792969 L 97.277344 -510.058594 C 96.636719 -511.339844 92.796875 -511.980469 91.515625 -511.980469 L 6.398438 -511.980469 C 3.199219 -511.980469 0 -508.78125 0 -506.21875 L 0 -122.875 L 97.917969 -122.875 L 97.917969 -339.1875 L 333.425781 -1.921875 C 334.066406 -0.640625 337.90625 0 339.1875 0 L 423.664062 0 C 428.144531 0 430.703125 -3.199219 430.703125 -5.761719 L 430.703125 -506.21875 C 430.703125 -508.78125 428.144531 -511.980469 423.664062 -511.980469 Z M 423.664062 -511.980469 "/></g></g></g></svg>